<?xml version="1.0" standalone="no"?>
<!DOCTYPE svg PUBLIC "-//W3C//DTD SVG 20010904//EN"
 "http://www.w3.org/TR/2001/REC-SVG-20010904/DTD/svg10.dtd">
<svg version="1.0" xmlns="http://www.w3.org/2000/svg"
 width="140.000000pt" height="140.000000pt" viewBox="0 0 140.000000 140.000000"
 preserveAspectRatio="xMidYMid meet">
<metadata>
Created by potrace 1.16, written by Peter Selinger 2001-2019
</metadata>
<g transform="translate(0.000000,140.000000) scale(0.100000,-0.100000)"
fill="#000000" stroke="none">
<path d="M745 1318 c-8 -18 -31 -76 -51 -128 -20 -52 -38 -96 -39 -98 -1 -1
-39 15 -83 38 -45 22 -86 40 -91 40 -7 0 -11 -34 -11 -90 l0 -90 -105 0 c-121
0 -124 -3 -71 -73 57 -75 60 -84 28 -90 -15 -2 -67 -17 -117 -31 -49 -14 -107
-31 -128 -37 -45 -12 -44 -30 4 -41 19 -5 43 -13 54 -18 11 -4 52 -16 90 -26
39 -10 82 -23 97 -29 l27 -11 -44 -64 c-25 -36 -45 -71 -45 -77 0 -10 28 -13
105 -13 l105 0 0 -85 c0 -101 -1 -100 103 -50 39 19 75 35 79 35 5 0 16 -22
23 -50 4 -12 17 -47 29 -75 48 -111 60 -135 68 -135 4 0 8 58 8 128 l0 128 72
12 c91 16 184 60 238 114 54 54 100 148 100 206 l0 42 -49 0 c-52 0 -55 4 -76
78 -12 41 -30 19 -27 -31 l4 -47 -90 0 c-103 0 -156 17 -166 52 -3 13 -6 56
-6 96 0 55 3 72 14 72 8 0 16 7 20 15 4 10 -1 15 -14 15 -28 0 -28 50 0 57 11
3 20 10 20 17 0 6 -9 17 -20 24 -18 11 -20 23 -20 132 0 125 -9 147 -35 88z
m-1 -264 c9 -3 16 -16 16 -29 0 -19 -7 -23 -49 -29 -80 -11 -178 -70 -210
-126 -10 -19 -25 -54 -32 -77 -12 -41 -14 -43 -51 -43 -44 0 -44 3 -21 78 29
91 139 191 243 218 52 14 82 17 104 8z m16 -163 c0 -70 -3 -83 -24 -108 -23
-26 -31 -28 -110 -32 -95 -3 -94 -4 -75 60 21 69 98 133 184 152 11 3 21 5 23
6 1 0 2 -35 2 -78z m399 -198 c-23 -86 -33 -104 -95 -167 -59 -60 -182 -116
-256 -116 -25 0 -28 3 -28 35 0 33 2 35 34 35 110 0 231 89 256 187 13 51 14
52 54 56 23 2 42 4 43 5 1 1 -3 -15 -8 -35z m-684 -29 c27 -92 131 -172 237
-182 47 -4 48 -5 48 -38 0 -31 -3 -34 -29 -34 -16 0 -58 9 -92 20 -82 25 -146
70 -211 149 -11 14 -48 115 -48 133 0 4 18 8 39 8 39 0 40 0 56 -56z m240 50
c25 -10 45 -59 45 -114 0 -49 -1 -50 -22 -39 -13 7 -23 11 -23 9 0 -7 -52 14
-78 33 -29 20 -87 93 -87 109 0 9 140 11 165 2z m318 -14 c-3 -11 -9 -20 -14
-20 -5 0 -9 -6 -9 -13 0 -15 -45 -59 -76 -75 -37 -19 -108 -42 -132 -42 -21 0
-22 4 -21 60 1 48 6 65 25 85 22 24 29 25 128 25 99 0 104 -1 99 -20z"/>
<path d="M800 1224 c0 -17 2 -18 100 -33 103 -16 206 -69 284 -147 72 -71 76
-76 103 -134 57 -119 56 -231 -4 -348 -20 -39 -55 -91 -76 -113 -41 -42 -155
-121 -192 -132 -106 -32 -164 -46 -187 -47 -19 0 -28 -5 -28 -16 0 -17 43 -14
145 8 120 26 296 150 352 248 82 142 74 363 -18 482 -84 111 -181 175 -324
217 -99 28 -155 34 -155 15z"/>
</g>
</svg>
